solid Exported from Blender-2.90.0
facet normal 0.577350 0.577350 0.577350
outer loop
vertex 0.775880 0.600000 0.600000
vertex 0.600000 0.775880 0.600000
vertex 0.600000 0.600000 0.775880
endloop
endfacet
facet normal 0.672112 0.672111 0.310697
outer loop
vertex 0.600000 0.775880 0.600000
vertex 0.775880 0.600000 0.600000
vertex 0.960788 0.600000 0.200000
endloop
endfacet
facet normal 0.672111 0.672112 0.310697
outer loop
vertex 0.600000 0.775880 0.600000
vertex 0.960788 0.600000 0.200000
vertex 0.600000 0.960788 0.200000
endloop
endfacet
facet normal 0.707107 0.707107 0.000000
outer loop
vertex 0.600000 0.960788 0.200000
vertex 0.960788 0.600000 0.200000
vertex 0.960788 0.600000 -0.200000
endloop
endfacet
facet normal 0.707107 0.707107 0.000000
outer loop
vertex 0.600000 0.960788 0.200000
vertex 0.960788 0.600000 -0.200000
vertex 0.600000 0.960788 -0.200000
endloop
endfacet
facet normal 0.871859 0.489757 0.000000
outer loop
vertex 0.960788 0.600000 -0.200000
vertex 0.960788 0.600000 0.200000
vertex 1.000000 0.530196 0.200000
endloop
endfacet
facet normal 0.871859 0.489757 0.000000
outer loop
vertex 0.960788 0.600000 -0.200000
vertex 1.000000 0.530196 0.200000
vertex 1.000000 0.530196 -0.200000
endloop
endfacet
facet normal 0.944267 0.329181 0.000000
outer loop
vertex 1.000000 0.530196 0.200000
vertex 1.115109 0.200000 0.200000
vertex 1.115109 0.200000 -0.200000
endloop
endfacet
facet normal 0.944267 0.329180 0.000000
outer loop
vertex 1.000000 0.530196 0.200000
vertex 1.115109 0.200000 -0.200000
vertex 1.000000 0.530196 -0.200000
endloop
endfacet
facet normal 0.896921 0.312676 -0.312675
outer loop
vertex 1.000000 0.530196 -0.200000
vertex 1.115109 0.200000 -0.200000
vertex 1.000000 0.200000 -0.530196
endloop
endfacet
facet normal 0.944267 0.000000 -0.329181
outer loop
vertex 1.000000 0.200000 -0.530196
vertex 1.115109 0.200000 -0.200000
vertex 1.115109 -0.200000 -0.200000
endloop
endfacet
facet normal 0.944267 0.000000 -0.329180
outer loop
vertex 1.000000 0.200000 -0.530196
vertex 1.115109 -0.200000 -0.200000
vertex 1.000000 -0.200000 -0.530196
endloop
endfacet
facet normal 0.896921 -0.312676 -0.312675
outer loop
vertex 1.115109 -0.200000 -0.200000
vertex 1.000000 -0.530196 -0.200000
vertex 1.000000 -0.200000 -0.530196
endloop
endfacet
facet normal 0.944267 -0.329181 0.000000
outer loop
vertex 1.115109 -0.200000 -0.200000
vertex 1.115109 -0.200000 0.200000
vertex 1.000000 -0.530196 0.200000
endloop
endfacet
facet normal 0.944267 -0.329180 0.000000
outer loop
vertex 1.115109 -0.200000 -0.200000
vertex 1.000000 -0.530196 0.200000
vertex 1.000000 -0.530196 -0.200000
endloop
endfacet
facet normal 0.896921 -0.312676 0.312675
outer loop
vertex 1.000000 -0.530196 0.200000
vertex 1.115109 -0.200000 0.200000
vertex 1.000000 -0.200000 0.530196
endloop
endfacet
facet normal 0.944267 0.000000 0.329181
outer loop
vertex 1.115109 -0.200000 0.200000
vertex 1.115109 0.200000 0.200000
vertex 1.000000 0.200000 0.530196
endloop
endfacet
facet normal 0.944267 0.000000 0.329180
outer loop
vertex 1.115109 -0.200000 0.200000
vertex 1.000000 0.200000 0.530196
vertex 1.000000 -0.200000 0.530196
endloop
endfacet
facet normal 0.871860 0.000000 0.489756
outer loop
vertex 1.000000 0.200000 0.530196
vertex 0.960788 0.200000 0.600000
vertex 0.960788 -0.200000 0.600000
endloop
endfacet
facet normal 0.871859 0.000000 0.489757
outer loop
vertex 1.000000 0.200000 0.530196
vertex 0.960788 -0.200000 0.600000
vertex 1.000000 -0.200000 0.530196
endloop
endfacet
facet normal 0.707107 0.000000 0.707107
outer loop
vertex 0.960788 -0.200000 0.600000
vertex 0.960788 0.200000 0.600000
vertex 0.600000 0.200000 0.960788
endloop
endfacet
facet normal 0.707107 0.000000 0.707107
outer loop
vertex 0.960788 -0.200000 0.600000
vertex 0.600000 0.200000 0.960788
vertex 0.600000 -0.200000 0.960788
endloop
endfacet
facet normal 0.489757 0.000000 0.871859
outer loop
vertex 0.600000 0.200000 0.960788
vertex 0.530196 0.200000 1.000000
vertex 0.530196 -0.200000 1.000000
endloop
endfacet
facet normal 0.489757 0.000000 0.871859
outer loop
vertex 0.600000 0.200000 0.960788
vertex 0.530196 -0.200000 1.000000
vertex 0.600000 -0.200000 0.960788
endloop
endfacet
facet normal 0.329180 0.000000 0.944267
outer loop
vertex 0.530196 -0.200000 1.000000
vertex 0.530196 0.200000 1.000000
vertex 0.200000 0.200000 1.115109
endloop
endfacet
facet normal 0.329181 0.000000 0.944267
outer loop
vertex 0.530196 -0.200000 1.000000
vertex 0.200000 0.200000 1.115109
vertex 0.200000 -0.200000 1.115109
endloop
endfacet
facet normal 0.312676 -0.312675 0.896921
outer loop
vertex 0.200000 -0.530196 1.000000
vertex 0.530196 -0.200000 1.000000
vertex 0.200000 -0.200000 1.115109
endloop
endfacet
facet normal 0.000000 -0.329180 0.944267
outer loop
vertex -0.200000 -0.530196 1.000000
vertex 0.200000 -0.530196 1.000000
vertex 0.200000 -0.200000 1.115109
endloop
endfacet
facet normal 0.000000 -0.329181 0.944267
outer loop
vertex -0.200000 -0.530196 1.000000
vertex 0.200000 -0.200000 1.115109
vertex -0.200000 -0.200000 1.115109
endloop
endfacet
facet normal 0.000000 -0.489757 0.871859
outer loop
vertex 0.200000 -0.600000 0.960788
vertex 0.200000 -0.530196 1.000000
vertex -0.200000 -0.530196 1.000000
endloop
endfacet
facet normal 0.000000 -0.489756 0.871860
outer loop
vertex 0.200000 -0.600000 0.960788
vertex -0.200000 -0.530196 1.000000
vertex -0.200000 -0.600000 0.960788
endloop
endfacet
facet normal 0.000000 -0.707107 0.707107
outer loop
vertex -0.200000 -0.960788 0.600000
vertex 0.200000 -0.960788 0.600000
vertex 0.200000 -0.600000 0.960788
endloop
endfacet
facet normal 0.000000 -0.707107 0.707107
outer loop
vertex -0.200000 -0.960788 0.600000
vertex 0.200000 -0.600000 0.960788
vertex -0.200000 -0.600000 0.960788
endloop
endfacet
facet normal 0.000000 -0.871859 0.489757
outer loop
vertex 0.200000 -1.000000 0.530196
vertex 0.200000 -0.960788 0.600000
vertex -0.200000 -0.960788 0.600000
endloop
endfacet
facet normal 0.000000 -0.871859 0.489757
outer loop
vertex 0.200000 -1.000000 0.530196
vertex -0.200000 -0.960788 0.600000
vertex -0.200000 -1.000000 0.530196
endloop
endfacet
facet normal 0.000000 -0.944267 0.329181
outer loop
vertex -0.200000 -1.115109 0.200000
vertex 0.200000 -1.115109 0.200000
vertex 0.200000 -1.000000 0.530196
endloop
endfacet
facet normal 0.000000 -0.944267 0.329180
outer loop
vertex -0.200000 -1.115109 0.200000
vertex 0.200000 -1.000000 0.530196
vertex -0.200000 -1.000000 0.530196
endloop
endfacet
facet normal 0.000000 -1.000000 0.000000
outer loop
vertex 0.200000 -1.115109 -0.200000
vertex 0.200000 -1.115109 0.200000
vertex -0.200000 -1.115109 0.200000
endloop
endfacet
facet normal 0.000000 -1.000000 0.000000
outer loop
vertex 0.200000 -1.115109 -0.200000
vertex -0.200000 -1.115109 0.200000
vertex -0.200000 -1.115109 -0.200000
endloop
endfacet
facet normal 0.000000 -0.944267 -0.329181
outer loop
vertex 0.200000 -1.000000 -0.530196
vertex 0.200000 -1.115109 -0.200000
vertex -0.200000 -1.115109 -0.200000
endloop
endfacet
facet normal 0.000000 -0.944267 -0.329180
outer loop
vertex 0.200000 -1.000000 -0.530196
vertex -0.200000 -1.115109 -0.200000
vertex -0.200000 -1.000000 -0.530196
endloop
endfacet
facet normal 0.000000 -0.871859 -0.489757
outer loop
vertex -0.200000 -0.960788 -0.600000
vertex 0.200000 -0.960788 -0.600000
vertex 0.200000 -1.000000 -0.530196
endloop
endfacet
facet normal 0.000000 -0.871859 -0.489757
outer loop
vertex -0.200000 -0.960788 -0.600000
vertex 0.200000 -1.000000 -0.530196
vertex -0.200000 -1.000000 -0.530196
endloop
endfacet
facet normal 0.000000 -0.707107 -0.707107
outer loop
vertex 0.200000 -0.600000 -0.960788
vertex 0.200000 -0.960788 -0.600000
vertex -0.200000 -0.960788 -0.600000
endloop
endfacet
facet normal 0.000000 -0.707107 -0.707107
outer loop
vertex 0.200000 -0.600000 -0.960788
vertex -0.200000 -0.960788 -0.600000
vertex -0.200000 -0.600000 -0.960788
endloop
endfacet
facet normal 0.000000 -0.489757 -0.871859
outer loop
vertex -0.200000 -0.530196 -1.000000
vertex 0.200000 -0.530196 -1.000000
vertex 0.200000 -0.600000 -0.960788
endloop
endfacet
facet normal 0.000000 -0.489756 -0.871860
outer loop
vertex -0.200000 -0.530196 -1.000000
vertex 0.200000 -0.600000 -0.960788
vertex -0.200000 -0.600000 -0.960788
endloop
endfacet
facet normal 0.000000 -0.329180 -0.944267
outer loop
vertex 0.200000 -0.200000 -1.115109
vertex 0.200000 -0.530196 -1.000000
vertex -0.200000 -0.530196 -1.000000
endloop
endfacet
facet normal 0.000000 -0.329181 -0.944267
outer loop
vertex 0.200000 -0.200000 -1.115109
vertex -0.200000 -0.530196 -1.000000
vertex -0.200000 -0.200000 -1.115109
endloop
endfacet
facet normal 0.000000 0.000000 -1.000000
outer loop
vertex -0.200000 0.200000 -1.115109
vertex 0.200000 0.200000 -1.115109
vertex 0.200000 -0.200000 -1.115109
endloop
endfacet
facet normal 0.000000 0.000000 -1.000000
outer loop
vertex -0.200000 0.200000 -1.115109
vertex 0.200000 -0.200000 -1.115109
vertex -0.200000 -0.200000 -1.115109
endloop
endfacet
facet normal 0.000000 0.329180 -0.944267
outer loop
vertex -0.200000 0.530196 -1.000000
vertex 0.200000 0.530196 -1.000000
vertex 0.200000 0.200000 -1.115109
endloop
endfacet
facet normal 0.000000 0.329181 -0.944267
outer loop
vertex -0.200000 0.530196 -1.000000
vertex 0.200000 0.200000 -1.115109
vertex -0.200000 0.200000 -1.115109
endloop
endfacet
facet normal 0.000000 0.489757 -0.871859
outer loop
vertex 0.200000 0.600000 -0.960788
vertex 0.200000 0.530196 -1.000000
vertex -0.200000 0.530196 -1.000000
endloop
endfacet
facet normal 0.000000 0.489756 -0.871860
outer loop
vertex 0.200000 0.600000 -0.960788
vertex -0.200000 0.530196 -1.000000
vertex -0.200000 0.600000 -0.960788
endloop
endfacet
facet normal 0.000000 0.707107 -0.707107
outer loop
vertex -0.200000 0.960788 -0.600000
vertex 0.200000 0.960788 -0.600000
vertex 0.200000 0.600000 -0.960788
endloop
endfacet
facet normal 0.000000 0.707107 -0.707107
outer loop
vertex -0.200000 0.960788 -0.600000
vertex 0.200000 0.600000 -0.960788
vertex -0.200000 0.600000 -0.960788
endloop
endfacet
facet normal 0.000000 0.871859 -0.489757
outer loop
vertex 0.200000 1.000000 -0.530196
vertex 0.200000 0.960788 -0.600000
vertex -0.200000 0.960788 -0.600000
endloop
endfacet
facet normal 0.000000 0.871859 -0.489757
outer loop
vertex 0.200000 1.000000 -0.530196
vertex -0.200000 0.960788 -0.600000
vertex -0.200000 1.000000 -0.530196
endloop
endfacet
facet normal 0.000000 0.944267 -0.329181
outer loop
vertex -0.200000 1.115109 -0.200000
vertex 0.200000 1.115109 -0.200000
vertex 0.200000 1.000000 -0.530196
endloop
endfacet
facet normal 0.000000 0.944267 -0.329180
outer loop
vertex -0.200000 1.115109 -0.200000
vertex 0.200000 1.000000 -0.530196
vertex -0.200000 1.000000 -0.530196
endloop
endfacet
facet normal 0.000000 1.000000 0.000000
outer loop
vertex -0.200000 1.115109 0.200000
vertex 0.200000 1.115109 0.200000
vertex 0.200000 1.115109 -0.200000
endloop
endfacet
facet normal 0.000000 1.000000 0.000000
outer loop
vertex -0.200000 1.115109 0.200000
vertex 0.200000 1.115109 -0.200000
vertex -0.200000 1.115109 -0.200000
endloop
endfacet
facet normal 0.000000 0.944267 0.329181
outer loop
vertex 0.200000 1.000000 0.530196
vertex 0.200000 1.115109 0.200000
vertex -0.200000 1.115109 0.200000
endloop
endfacet
facet normal 0.000000 0.944267 0.329180
outer loop
vertex 0.200000 1.000000 0.530196
vertex -0.200000 1.115109 0.200000
vertex -0.200000 1.000000 0.530196
endloop
endfacet
facet normal 0.000000 0.871859 0.489757
outer loop
vertex -0.200000 0.960788 0.600000
vertex 0.200000 0.960788 0.600000
vertex 0.200000 1.000000 0.530196
endloop
endfacet
facet normal 0.000000 0.871859 0.489757
outer loop
vertex -0.200000 0.960788 0.600000
vertex 0.200000 1.000000 0.530196
vertex -0.200000 1.000000 0.530196
endloop
endfacet
facet normal 0.000000 0.707107 0.707107
outer loop
vertex 0.200000 0.600000 0.960788
vertex 0.200000 0.960788 0.600000
vertex -0.200000 0.960788 0.600000
endloop
endfacet
facet normal 0.000000 0.707107 0.707107
outer loop
vertex 0.200000 0.600000 0.960788
vertex -0.200000 0.960788 0.600000
vertex -0.200000 0.600000 0.960788
endloop
endfacet
facet normal 0.000000 0.489757 0.871859
outer loop
vertex -0.200000 0.530196 1.000000
vertex 0.200000 0.530196 1.000000
vertex 0.200000 0.600000 0.960788
endloop
endfacet
facet normal 0.000000 0.489756 0.871860
outer loop
vertex -0.200000 0.530196 1.000000
vertex 0.200000 0.600000 0.960788
vertex -0.200000 0.600000 0.960788
endloop
endfacet
facet normal 0.000000 0.329180 0.944267
outer loop
vertex 0.200000 0.200000 1.115109
vertex 0.200000 0.530196 1.000000
vertex -0.200000 0.530196 1.000000
endloop
endfacet
facet normal 0.000000 0.329181 0.944267
outer loop
vertex 0.200000 0.200000 1.115109
vertex -0.200000 0.530196 1.000000
vertex -0.200000 0.200000 1.115109
endloop
endfacet
facet normal -0.312676 0.312675 0.896921
outer loop
vertex -0.200000 0.530196 1.000000
vertex -0.530196 0.200000 1.000000
vertex -0.200000 0.200000 1.115109
endloop
endfacet
facet normal -0.329180 0.000000 0.944267
outer loop
vertex -0.200000 0.200000 1.115109
vertex -0.530196 0.200000 1.000000
vertex -0.530196 -0.200000 1.000000
endloop
endfacet
facet normal -0.329181 0.000000 0.944267
outer loop
vertex -0.200000 0.200000 1.115109
vertex -0.530196 -0.200000 1.000000
vertex -0.200000 -0.200000 1.115109
endloop
endfacet
facet normal -0.489757 0.000000 0.871859
outer loop
vertex -0.530196 -0.200000 1.000000
vertex -0.530196 0.200000 1.000000
vertex -0.600000 0.200000 0.960788
endloop
endfacet
facet normal -0.489757 0.000000 0.871859
outer loop
vertex -0.530196 -0.200000 1.000000
vertex -0.600000 0.200000 0.960788
vertex -0.600000 -0.200000 0.960788
endloop
endfacet
facet normal -0.707107 0.000000 0.707107
outer loop
vertex -0.600000 0.200000 0.960788
vertex -0.960788 0.200000 0.600000
vertex -0.960788 -0.200000 0.600000
endloop
endfacet
facet normal -0.707107 0.000000 0.707107
outer loop
vertex -0.600000 0.200000 0.960788
vertex -0.960788 -0.200000 0.600000
vertex -0.600000 -0.200000 0.960788
endloop
endfacet
facet normal -0.871860 0.000000 0.489756
outer loop
vertex -0.960788 -0.200000 0.600000
vertex -0.960788 0.200000 0.600000
vertex -1.000000 0.200000 0.530196
endloop
endfacet
facet normal -0.871859 0.000000 0.489757
outer loop
vertex -0.960788 -0.200000 0.600000
vertex -1.000000 0.200000 0.530196
vertex -1.000000 -0.200000 0.530196
endloop
endfacet
facet normal -0.808652 0.454251 0.373816
outer loop
vertex -0.775880 0.600000 0.600000
vertex -0.960788 0.600000 0.200000
vertex -1.000000 0.530196 0.200000
endloop
endfacet
facet normal -0.828984 0.395466 0.395466
outer loop
vertex -0.775880 0.600000 0.600000
vertex -1.000000 0.530196 0.200000
vertex -1.000000 0.200000 0.530196
endloop
endfacet
facet normal -0.808652 0.373815 0.454251
outer loop
vertex -0.960788 0.200000 0.600000
vertex -0.775880 0.600000 0.600000
vertex -1.000000 0.200000 0.530196
endloop
endfacet
facet normal -0.871859 0.489757 0.000000
outer loop
vertex -1.000000 0.530196 0.200000
vertex -0.960788 0.600000 0.200000
vertex -0.960788 0.600000 -0.200000
endloop
endfacet
facet normal -0.871859 0.489757 0.000000
outer loop
vertex -1.000000 0.530196 0.200000
vertex -0.960788 0.600000 -0.200000
vertex -1.000000 0.530196 -0.200000
endloop
endfacet
facet normal -0.837007 0.386923 -0.386923
outer loop
vertex -0.960788 0.600000 -0.200000
vertex -0.775880 0.600000 -0.600000
vertex -0.960788 0.200000 -0.600000
endloop
endfacet
facet normal -0.782996 0.439840 -0.439839
outer loop
vertex -0.960788 0.600000 -0.200000
vertex -0.960788 0.200000 -0.600000
vertex -1.000000 0.200000 -0.530196
endloop
endfacet
facet normal -0.782997 0.439838 -0.439839
outer loop
vertex -1.000000 0.530196 -0.200000
vertex -0.960788 0.600000 -0.200000
vertex -1.000000 0.200000 -0.530196
endloop
endfacet
facet normal -0.672111 0.672111 -0.310697
outer loop
vertex -0.775880 0.600000 -0.600000
vertex -0.960788 0.600000 -0.200000
vertex -0.600000 0.960788 -0.200000
endloop
endfacet
facet normal -0.672111 0.672111 -0.310697
outer loop
vertex -0.775880 0.600000 -0.600000
vertex -0.600000 0.960788 -0.200000
vertex -0.600000 0.775880 -0.600000
endloop
endfacet
facet normal -0.577350 0.577350 -0.577350
outer loop
vertex -0.775880 0.600000 -0.600000
vertex -0.600000 0.775880 -0.600000
vertex -0.600000 0.600000 -0.775880
endloop
endfacet
facet normal -0.871860 0.000000 -0.489756
outer loop
vertex -1.000000 0.200000 -0.530196
vertex -0.960788 0.200000 -0.600000
vertex -0.960788 -0.200000 -0.600000
endloop
endfacet
facet normal -0.871859 0.000000 -0.489757
outer loop
vertex -1.000000 0.200000 -0.530196
vertex -0.960788 -0.200000 -0.600000
vertex -1.000000 -0.200000 -0.530196
endloop
endfacet
facet normal -0.707107 0.000000 -0.707107
outer loop
vertex -0.960788 -0.200000 -0.600000
vertex -0.960788 0.200000 -0.600000
vertex -0.600000 0.200000 -0.960788
endloop
endfacet
facet normal -0.707107 0.000000 -0.707107
outer loop
vertex -0.960788 -0.200000 -0.600000
vertex -0.600000 0.200000 -0.960788
vertex -0.600000 -0.200000 -0.960788
endloop
endfacet
facet normal -0.672112 -0.310697 -0.672111
outer loop
vertex -0.775880 -0.600000 -0.600000
vertex -0.960788 -0.200000 -0.600000
vertex -0.600000 -0.200000 -0.960788
endloop
endfacet
facet normal -0.672111 -0.310697 -0.672112
outer loop
vertex -0.775880 -0.600000 -0.600000
vertex -0.600000 -0.200000 -0.960788
vertex -0.600000 -0.600000 -0.775880
endloop
endfacet
facet normal -0.489757 0.000000 -0.871859
outer loop
vertex -0.600000 0.200000 -0.960788
vertex -0.530196 0.200000 -1.000000
vertex -0.530196 -0.200000 -1.000000
endloop
endfacet
facet normal -0.489757 0.000000 -0.871859
outer loop
vertex -0.600000 0.200000 -0.960788
vertex -0.530196 -0.200000 -1.000000
vertex -0.600000 -0.200000 -0.960788
endloop
endfacet
facet normal -0.808652 -0.454251 -0.373816
outer loop
vertex -0.775880 -0.600000 -0.600000
vertex -0.960788 -0.600000 -0.200000
vertex -1.000000 -0.530196 -0.200000
endloop
endfacet
facet normal -0.828984 -0.395466 -0.395466
outer loop
vertex -0.775880 -0.600000 -0.600000
vertex -1.000000 -0.530196 -0.200000
vertex -1.000000 -0.200000 -0.530196
endloop
endfacet
facet normal -0.808652 -0.373815 -0.454251
outer loop
vertex -0.960788 -0.200000 -0.600000
vertex -0.775880 -0.600000 -0.600000
vertex -1.000000 -0.200000 -0.530196
endloop
endfacet
facet normal -0.871859 -0.489757 0.000000
outer loop
vertex -0.960788 -0.600000 -0.200000
vertex -0.960788 -0.600000 0.200000
vertex -1.000000 -0.530196 0.200000
endloop
endfacet
facet normal -0.871859 -0.489757 0.000000
outer loop
vertex -0.960788 -0.600000 -0.200000
vertex -1.000000 -0.530196 0.200000
vertex -1.000000 -0.530196 -0.200000
endloop
endfacet
facet normal -0.707107 -0.707107 0.000000
outer loop
vertex -0.600000 -0.960788 0.200000
vertex -0.960788 -0.600000 0.200000
vertex -0.960788 -0.600000 -0.200000
endloop
endfacet
facet normal -0.707107 -0.707107 0.000000
outer loop
vertex -0.600000 -0.960788 0.200000
vertex -0.960788 -0.600000 -0.200000
vertex -0.600000 -0.960788 -0.200000
endloop
endfacet
facet normal -0.489757 -0.871859 0.000000
outer loop
vertex -0.530196 -1.000000 -0.200000
vertex -0.530196 -1.000000 0.200000
vertex -0.600000 -0.960788 0.200000
endloop
endfacet
facet normal -0.489756 -0.871860 0.000000
outer loop
vertex -0.530196 -1.000000 -0.200000
vertex -0.600000 -0.960788 0.200000
vertex -0.600000 -0.960788 -0.200000
endloop
endfacet
facet normal -0.944267 -0.329181 0.000000
outer loop
vertex -1.000000 -0.530196 0.200000
vertex -1.115109 -0.200000 0.200000
vertex -1.115109 -0.200000 -0.200000
endloop
endfacet
facet normal -0.944267 -0.329180 0.000000
outer loop
vertex -1.000000 -0.530196 0.200000
vertex -1.115109 -0.200000 -0.200000
vertex -1.000000 -0.530196 -0.200000
endloop
endfacet
facet normal -0.896921 -0.312676 0.312675
outer loop
vertex -1.115109 -0.200000 0.200000
vertex -1.000000 -0.530196 0.200000
vertex -1.000000 -0.200000 0.530196
endloop
endfacet
facet normal -1.000000 0.000000 0.000000
outer loop
vertex -1.115109 -0.200000 0.200000
vertex -1.115109 0.200000 0.200000
vertex -1.115109 0.200000 -0.200000
endloop
endfacet
facet normal -1.000000 0.000000 0.000000
outer loop
vertex -1.115109 -0.200000 0.200000
vertex -1.115109 0.200000 -0.200000
vertex -1.115109 -0.200000 -0.200000
endloop
endfacet
facet normal -0.672111 -0.672111 -0.310697
outer loop
vertex -0.600000 -0.960788 -0.200000
vertex -0.960788 -0.600000 -0.200000
vertex -0.775880 -0.600000 -0.600000
endloop
endfacet
facet normal -0.672111 -0.672111 -0.310697
outer loop
vertex -0.600000 -0.960788 -0.200000
vertex -0.775880 -0.600000 -0.600000
vertex -0.600000 -0.775880 -0.600000
endloop
endfacet
facet normal -0.896921 -0.312676 -0.312675
outer loop
vertex -1.000000 -0.530196 -0.200000
vertex -1.115109 -0.200000 -0.200000
vertex -1.000000 -0.200000 -0.530196
endloop
endfacet
facet normal -0.944267 0.000000 -0.329181
outer loop
vertex -1.115109 -0.200000 -0.200000
vertex -1.115109 0.200000 -0.200000
vertex -1.000000 0.200000 -0.530196
endloop
endfacet
facet normal -0.944267 0.000000 -0.329180
outer loop
vertex -1.115109 -0.200000 -0.200000
vertex -1.000000 0.200000 -0.530196
vertex -1.000000 -0.200000 -0.530196
endloop
endfacet
facet normal -0.896921 0.312676 -0.312675
outer loop
vertex -1.115109 0.200000 -0.200000
vertex -1.000000 0.530196 -0.200000
vertex -1.000000 0.200000 -0.530196
endloop
endfacet
facet normal -0.707107 0.707107 0.000000
outer loop
vertex -0.960788 0.600000 -0.200000
vertex -0.960788 0.600000 0.200000
vertex -0.600000 0.960788 0.200000
endloop
endfacet
facet normal -0.707107 0.707107 0.000000
outer loop
vertex -0.960788 0.600000 -0.200000
vertex -0.600000 0.960788 0.200000
vertex -0.600000 0.960788 -0.200000
endloop
endfacet
facet normal -0.489757 0.871859 0.000000
outer loop
vertex -0.600000 0.960788 0.200000
vertex -0.530196 1.000000 0.200000
vertex -0.530196 1.000000 -0.200000
endloop
endfacet
facet normal -0.489756 0.871860 0.000000
outer loop
vertex -0.600000 0.960788 0.200000
vertex -0.530196 1.000000 -0.200000
vertex -0.600000 0.960788 -0.200000
endloop
endfacet
facet normal -0.944267 0.329181 0.000000
outer loop
vertex -1.115109 0.200000 -0.200000
vertex -1.115109 0.200000 0.200000
vertex -1.000000 0.530196 0.200000
endloop
endfacet
facet normal -0.944267 0.329180 0.000000
outer loop
vertex -1.115109 0.200000 -0.200000
vertex -1.000000 0.530196 0.200000
vertex -1.000000 0.530196 -0.200000
endloop
endfacet
facet normal -0.672112 0.672111 0.310697
outer loop
vertex -0.960788 0.600000 0.200000
vertex -0.775880 0.600000 0.600000
vertex -0.600000 0.775880 0.600000
endloop
endfacet
facet normal -0.672111 0.672112 0.310697
outer loop
vertex -0.960788 0.600000 0.200000
vertex -0.600000 0.775880 0.600000
vertex -0.600000 0.960788 0.200000
endloop
endfacet
facet normal -0.577350 0.577350 0.577350
outer loop
vertex -0.600000 0.775880 0.600000
vertex -0.775880 0.600000 0.600000
vertex -0.600000 0.600000 0.775880
endloop
endfacet
facet normal -0.837007 -0.386923 0.386923
outer loop
vertex -0.960788 -0.600000 0.200000
vertex -0.775880 -0.600000 0.600000
vertex -0.960788 -0.200000 0.600000
endloop
endfacet
facet normal -0.782996 -0.439840 0.439839
outer loop
vertex -0.960788 -0.600000 0.200000
vertex -0.960788 -0.200000 0.600000
vertex -1.000000 -0.200000 0.530196
endloop
endfacet
facet normal -0.782997 -0.439838 0.439839
outer loop
vertex -1.000000 -0.530196 0.200000
vertex -0.960788 -0.600000 0.200000
vertex -1.000000 -0.200000 0.530196
endloop
endfacet
facet normal -0.944267 0.000000 0.329181
outer loop
vertex -1.000000 0.200000 0.530196
vertex -1.115109 0.200000 0.200000
vertex -1.115109 -0.200000 0.200000
endloop
endfacet
facet normal -0.944267 0.000000 0.329180
outer loop
vertex -1.000000 0.200000 0.530196
vertex -1.115109 -0.200000 0.200000
vertex -1.000000 -0.200000 0.530196
endloop
endfacet
facet normal -0.672111 0.310697 0.672111
outer loop
vertex -0.600000 0.600000 0.775880
vertex -0.775880 0.600000 0.600000
vertex -0.960788 0.200000 0.600000
endloop
endfacet
facet normal -0.672111 0.310697 0.672111
outer loop
vertex -0.600000 0.600000 0.775880
vertex -0.960788 0.200000 0.600000
vertex -0.600000 0.200000 0.960788
endloop
endfacet
facet normal -0.672112 -0.310697 0.672111
outer loop
vertex -0.600000 -0.200000 0.960788
vertex -0.960788 -0.200000 0.600000
vertex -0.775880 -0.600000 0.600000
endloop
endfacet
facet normal -0.672111 -0.310697 0.672112
outer loop
vertex -0.600000 -0.200000 0.960788
vertex -0.775880 -0.600000 0.600000
vertex -0.600000 -0.600000 0.775880
endloop
endfacet
facet normal -0.577350 -0.577350 0.577350
outer loop
vertex -0.775880 -0.600000 0.600000
vertex -0.600000 -0.775880 0.600000
vertex -0.600000 -0.600000 0.775880
endloop
endfacet
facet normal -0.312675 0.896921 0.312676
outer loop
vertex -0.200000 1.115109 0.200000
vertex -0.530196 1.000000 0.200000
vertex -0.200000 1.000000 0.530196
endloop
endfacet
facet normal 0.329180 0.944267 0.000000
outer loop
vertex 0.200000 1.115109 0.200000
vertex 0.530196 1.000000 0.200000
vertex 0.530196 1.000000 -0.200000
endloop
endfacet
facet normal 0.329181 0.944267 0.000000
outer loop
vertex 0.200000 1.115109 0.200000
vertex 0.530196 1.000000 -0.200000
vertex 0.200000 1.115109 -0.200000
endloop
endfacet
facet normal -0.329180 0.944267 0.000000
outer loop
vertex -0.530196 1.000000 -0.200000
vertex -0.530196 1.000000 0.200000
vertex -0.200000 1.115109 0.200000
endloop
endfacet
facet normal -0.329181 0.944267 0.000000
outer loop
vertex -0.530196 1.000000 -0.200000
vertex -0.200000 1.115109 0.200000
vertex -0.200000 1.115109 -0.200000
endloop
endfacet
facet normal 0.312675 0.896921 -0.312676
outer loop
vertex 0.200000 1.115109 -0.200000
vertex 0.530196 1.000000 -0.200000
vertex 0.200000 1.000000 -0.530196
endloop
endfacet
facet normal -0.312675 0.896921 -0.312676
outer loop
vertex -0.530196 1.000000 -0.200000
vertex -0.200000 1.115109 -0.200000
vertex -0.200000 1.000000 -0.530196
endloop
endfacet
facet normal 0.310697 0.672112 -0.672111
outer loop
vertex 0.200000 0.960788 -0.600000
vertex 0.600000 0.775880 -0.600000
vertex 0.600000 0.600000 -0.775880
endloop
endfacet
facet normal 0.310697 0.672111 -0.672112
outer loop
vertex 0.200000 0.960788 -0.600000
vertex 0.600000 0.600000 -0.775880
vertex 0.200000 0.600000 -0.960788
endloop
endfacet
facet normal 0.577350 0.577350 -0.577350
outer loop
vertex 0.600000 0.775880 -0.600000
vertex 0.775880 0.600000 -0.600000
vertex 0.600000 0.600000 -0.775880
endloop
endfacet
facet normal 0.672111 0.310697 -0.672111
outer loop
vertex 0.600000 0.600000 -0.775880
vertex 0.775880 0.600000 -0.600000
vertex 0.960788 0.200000 -0.600000
endloop
endfacet
facet normal 0.672111 0.310697 -0.672111
outer loop
vertex 0.600000 0.600000 -0.775880
vertex 0.960788 0.200000 -0.600000
vertex 0.600000 0.200000 -0.960788
endloop
endfacet
facet normal 0.707107 0.000000 -0.707107
outer loop
vertex 0.600000 0.200000 -0.960788
vertex 0.960788 0.200000 -0.600000
vertex 0.960788 -0.200000 -0.600000
endloop
endfacet
facet normal 0.707107 0.000000 -0.707107
outer loop
vertex 0.600000 0.200000 -0.960788
vertex 0.960788 -0.200000 -0.600000
vertex 0.600000 -0.200000 -0.960788
endloop
endfacet
facet normal 0.672112 -0.310697 -0.672111
outer loop
vertex 0.600000 -0.200000 -0.960788
vertex 0.960788 -0.200000 -0.600000
vertex 0.775880 -0.600000 -0.600000
endloop
endfacet
facet normal 0.672111 -0.310697 -0.672112
outer loop
vertex 0.600000 -0.200000 -0.960788
vertex 0.775880 -0.600000 -0.600000
vertex 0.600000 -0.600000 -0.775880
endloop
endfacet
facet normal 0.577350 -0.577350 -0.577350
outer loop
vertex 0.775880 -0.600000 -0.600000
vertex 0.600000 -0.775880 -0.600000
vertex 0.600000 -0.600000 -0.775880
endloop
endfacet
facet normal 0.672111 -0.672111 -0.310697
outer loop
vertex 0.775880 -0.600000 -0.600000
vertex 0.960788 -0.600000 -0.200000
vertex 0.600000 -0.960788 -0.200000
endloop
endfacet
facet normal 0.672111 -0.672111 -0.310697
outer loop
vertex 0.775880 -0.600000 -0.600000
vertex 0.600000 -0.960788 -0.200000
vertex 0.600000 -0.775880 -0.600000
endloop
endfacet
facet normal 0.707107 -0.707107 0.000000
outer loop
vertex 0.960788 -0.600000 -0.200000
vertex 0.960788 -0.600000 0.200000
vertex 0.600000 -0.960788 0.200000
endloop
endfacet
facet normal 0.707107 -0.707107 0.000000
outer loop
vertex 0.960788 -0.600000 -0.200000
vertex 0.600000 -0.960788 0.200000
vertex 0.600000 -0.960788 -0.200000
endloop
endfacet
facet normal 0.672112 -0.672111 0.310697
outer loop
vertex 0.960788 -0.600000 0.200000
vertex 0.775880 -0.600000 0.600000
vertex 0.600000 -0.775880 0.600000
endloop
endfacet
facet normal 0.672111 -0.672112 0.310697
outer loop
vertex 0.960788 -0.600000 0.200000
vertex 0.600000 -0.775880 0.600000
vertex 0.600000 -0.960788 0.200000
endloop
endfacet
facet normal 0.577350 -0.577350 0.577350
outer loop
vertex 0.600000 -0.775880 0.600000
vertex 0.775880 -0.600000 0.600000
vertex 0.600000 -0.600000 0.775880
endloop
endfacet
facet normal 0.489757 -0.871859 0.000000
outer loop
vertex 0.600000 -0.960788 0.200000
vertex 0.530196 -1.000000 0.200000
vertex 0.530196 -1.000000 -0.200000
endloop
endfacet
facet normal 0.489756 -0.871860 0.000000
outer loop
vertex 0.600000 -0.960788 0.200000
vertex 0.530196 -1.000000 -0.200000
vertex 0.600000 -0.960788 -0.200000
endloop
endfacet
facet normal 0.489757 0.000000 -0.871859
outer loop
vertex 0.530196 -0.200000 -1.000000
vertex 0.530196 0.200000 -1.000000
vertex 0.600000 0.200000 -0.960788
endloop
endfacet
facet normal 0.489757 0.000000 -0.871859
outer loop
vertex 0.530196 -0.200000 -1.000000
vertex 0.600000 0.200000 -0.960788
vertex 0.600000 -0.200000 -0.960788
endloop
endfacet
facet normal -0.310697 0.672111 -0.672111
outer loop
vertex -0.600000 0.775880 -0.600000
vertex -0.200000 0.960788 -0.600000
vertex -0.200000 0.600000 -0.960788
endloop
endfacet
facet normal -0.310697 0.672111 -0.672111
outer loop
vertex -0.600000 0.775880 -0.600000
vertex -0.200000 0.600000 -0.960788
vertex -0.600000 0.600000 -0.775880
endloop
endfacet
facet normal 0.439838 0.439839 -0.782997
outer loop
vertex 0.600000 0.200000 -0.960788
vertex 0.530196 0.200000 -1.000000
vertex 0.200000 0.530196 -1.000000
endloop
endfacet
facet normal 0.439840 0.439839 -0.782996
outer loop
vertex 0.600000 0.200000 -0.960788
vertex 0.200000 0.530196 -1.000000
vertex 0.200000 0.600000 -0.960788
endloop
endfacet
facet normal 0.386923 0.386923 -0.837007
outer loop
vertex 0.600000 0.600000 -0.775880
vertex 0.600000 0.200000 -0.960788
vertex 0.200000 0.600000 -0.960788
endloop
endfacet
facet normal -0.439840 0.439839 -0.782996
outer loop
vertex -0.200000 0.600000 -0.960788
vertex -0.200000 0.530196 -1.000000
vertex -0.530196 0.200000 -1.000000
endloop
endfacet
facet normal -0.439839 0.439839 -0.782996
outer loop
vertex -0.200000 0.600000 -0.960788
vertex -0.530196 0.200000 -1.000000
vertex -0.600000 0.200000 -0.960788
endloop
endfacet
facet normal -0.386923 0.386923 -0.837007
outer loop
vertex -0.600000 0.600000 -0.775880
vertex -0.200000 0.600000 -0.960788
vertex -0.600000 0.200000 -0.960788
endloop
endfacet
facet normal -0.312676 0.312675 -0.896921
outer loop
vertex -0.530196 0.200000 -1.000000
vertex -0.200000 0.530196 -1.000000
vertex -0.200000 0.200000 -1.115109
endloop
endfacet
facet normal 0.329180 0.000000 -0.944267
outer loop
vertex 0.200000 0.200000 -1.115109
vertex 0.530196 0.200000 -1.000000
vertex 0.530196 -0.200000 -1.000000
endloop
endfacet
facet normal 0.329181 0.000000 -0.944267
outer loop
vertex 0.200000 0.200000 -1.115109
vertex 0.530196 -0.200000 -1.000000
vertex 0.200000 -0.200000 -1.115109
endloop
endfacet
facet normal -0.329180 0.000000 -0.944267
outer loop
vertex -0.530196 -0.200000 -1.000000
vertex -0.530196 0.200000 -1.000000
vertex -0.200000 0.200000 -1.115109
endloop
endfacet
facet normal -0.329181 0.000000 -0.944267
outer loop
vertex -0.530196 -0.200000 -1.000000
vertex -0.200000 0.200000 -1.115109
vertex -0.200000 -0.200000 -1.115109
endloop
endfacet
facet normal 0.312676 -0.312675 -0.896921
outer loop
vertex 0.530196 -0.200000 -1.000000
vertex 0.200000 -0.530196 -1.000000
vertex 0.200000 -0.200000 -1.115109
endloop
endfacet
facet normal -0.312676 -0.312675 -0.896921
outer loop
vertex -0.200000 -0.530196 -1.000000
vertex -0.530196 -0.200000 -1.000000
vertex -0.200000 -0.200000 -1.115109
endloop
endfacet
facet normal 0.454251 -0.373816 -0.808652
outer loop
vertex 0.530196 -0.200000 -1.000000
vertex 0.600000 -0.200000 -0.960788
vertex 0.600000 -0.600000 -0.775880
endloop
endfacet
facet normal 0.384726 -0.399172 -0.832254
outer loop
vertex 0.530196 -0.200000 -1.000000
vertex 0.600000 -0.600000 -0.775880
vertex 0.200000 -0.600000 -0.960788
endloop
endfacet
facet normal 0.439838 -0.439839 -0.782997
outer loop
vertex 0.200000 -0.530196 -1.000000
vertex 0.530196 -0.200000 -1.000000
vertex 0.200000 -0.600000 -0.960788
endloop
endfacet
facet normal -0.439839 -0.439839 -0.782996
outer loop
vertex -0.530196 -0.200000 -1.000000
vertex -0.200000 -0.530196 -1.000000
vertex -0.200000 -0.600000 -0.960788
endloop
endfacet
facet normal -0.384726 -0.399172 -0.832254
outer loop
vertex -0.530196 -0.200000 -1.000000
vertex -0.200000 -0.600000 -0.960788
vertex -0.600000 -0.600000 -0.775880
endloop
endfacet
facet normal -0.454251 -0.373816 -0.808652
outer loop
vertex -0.600000 -0.200000 -0.960788
vertex -0.530196 -0.200000 -1.000000
vertex -0.600000 -0.600000 -0.775880
endloop
endfacet
facet normal -0.310697 -0.672111 -0.672111
outer loop
vertex -0.200000 -0.600000 -0.960788
vertex -0.200000 -0.960788 -0.600000
vertex -0.600000 -0.775880 -0.600000
endloop
endfacet
facet normal -0.310697 -0.672111 -0.672111
outer loop
vertex -0.200000 -0.600000 -0.960788
vertex -0.600000 -0.775880 -0.600000
vertex -0.600000 -0.600000 -0.775880
endloop
endfacet
facet normal 0.454251 -0.808652 -0.373815
outer loop
vertex 0.600000 -0.775880 -0.600000
vertex 0.600000 -0.960788 -0.200000
vertex 0.530196 -1.000000 -0.200000
endloop
endfacet
facet normal 0.395466 -0.828984 -0.395466
outer loop
vertex 0.600000 -0.775880 -0.600000
vertex 0.530196 -1.000000 -0.200000
vertex 0.200000 -1.000000 -0.530196
endloop
endfacet
facet normal 0.373816 -0.808652 -0.454251
outer loop
vertex 0.200000 -0.960788 -0.600000
vertex 0.600000 -0.775880 -0.600000
vertex 0.200000 -1.000000 -0.530196
endloop
endfacet
facet normal -0.439839 -0.782996 -0.439839
outer loop
vertex -0.200000 -1.000000 -0.530196
vertex -0.530196 -1.000000 -0.200000
vertex -0.600000 -0.960788 -0.200000
endloop
endfacet
facet normal -0.399172 -0.832254 -0.384726
outer loop
vertex -0.200000 -1.000000 -0.530196
vertex -0.600000 -0.960788 -0.200000
vertex -0.600000 -0.775880 -0.600000
endloop
endfacet
facet normal -0.373816 -0.808652 -0.454251
outer loop
vertex -0.200000 -0.960788 -0.600000
vertex -0.200000 -1.000000 -0.530196
vertex -0.600000 -0.775880 -0.600000
endloop
endfacet
facet normal 0.312675 -0.896921 -0.312676
outer loop
vertex 0.530196 -1.000000 -0.200000
vertex 0.200000 -1.115109 -0.200000
vertex 0.200000 -1.000000 -0.530196
endloop
endfacet
facet normal -0.312675 -0.896921 -0.312676
outer loop
vertex -0.200000 -1.115109 -0.200000
vertex -0.530196 -1.000000 -0.200000
vertex -0.200000 -1.000000 -0.530196
endloop
endfacet
facet normal 0.329180 -0.944267 0.000000
outer loop
vertex 0.530196 -1.000000 -0.200000
vertex 0.530196 -1.000000 0.200000
vertex 0.200000 -1.115109 0.200000
endloop
endfacet
facet normal 0.329181 -0.944267 0.000000
outer loop
vertex 0.530196 -1.000000 -0.200000
vertex 0.200000 -1.115109 0.200000
vertex 0.200000 -1.115109 -0.200000
endloop
endfacet
facet normal -0.329180 -0.944267 0.000000
outer loop
vertex -0.200000 -1.115109 0.200000
vertex -0.530196 -1.000000 0.200000
vertex -0.530196 -1.000000 -0.200000
endloop
endfacet
facet normal -0.329181 -0.944267 0.000000
outer loop
vertex -0.200000 -1.115109 0.200000
vertex -0.530196 -1.000000 -0.200000
vertex -0.200000 -1.115109 -0.200000
endloop
endfacet
facet normal -0.312675 -0.896921 0.312676
outer loop
vertex -0.530196 -1.000000 0.200000
vertex -0.200000 -1.115109 0.200000
vertex -0.200000 -1.000000 0.530196
endloop
endfacet
facet normal 0.386923 -0.837007 0.386923
outer loop
vertex 0.600000 -0.960788 0.200000
vertex 0.600000 -0.775880 0.600000
vertex 0.200000 -0.960788 0.600000
endloop
endfacet
facet normal 0.439839 -0.782996 0.439839
outer loop
vertex 0.600000 -0.960788 0.200000
vertex 0.200000 -0.960788 0.600000
vertex 0.200000 -1.000000 0.530196
endloop
endfacet
facet normal 0.439839 -0.782997 0.439838
outer loop
vertex 0.530196 -1.000000 0.200000
vertex 0.600000 -0.960788 0.200000
vertex 0.200000 -1.000000 0.530196
endloop
endfacet
facet normal -0.373816 -0.808652 0.454251
outer loop
vertex -0.200000 -1.000000 0.530196
vertex -0.200000 -0.960788 0.600000
vertex -0.600000 -0.775880 0.600000
endloop
endfacet
facet normal -0.399172 -0.832254 0.384726
outer loop
vertex -0.200000 -1.000000 0.530196
vertex -0.600000 -0.775880 0.600000
vertex -0.600000 -0.960788 0.200000
endloop
endfacet
facet normal -0.439839 -0.782997 0.439838
outer loop
vertex -0.530196 -1.000000 0.200000
vertex -0.200000 -1.000000 0.530196
vertex -0.600000 -0.960788 0.200000
endloop
endfacet
facet normal 0.310697 -0.672112 0.672111
outer loop
vertex 0.200000 -0.960788 0.600000
vertex 0.600000 -0.775880 0.600000
vertex 0.600000 -0.600000 0.775880
endloop
endfacet
facet normal 0.310697 -0.672111 0.672112
outer loop
vertex 0.200000 -0.960788 0.600000
vertex 0.600000 -0.600000 0.775880
vertex 0.200000 -0.600000 0.960788
endloop
endfacet
facet normal -0.310697 -0.672111 0.672111
outer loop
vertex -0.600000 -0.775880 0.600000
vertex -0.200000 -0.960788 0.600000
vertex -0.200000 -0.600000 0.960788
endloop
endfacet
facet normal -0.310697 -0.672111 0.672111
outer loop
vertex -0.600000 -0.775880 0.600000
vertex -0.200000 -0.600000 0.960788
vertex -0.600000 -0.600000 0.775880
endloop
endfacet
facet normal -0.312676 -0.312675 0.896921
outer loop
vertex -0.530196 -0.200000 1.000000
vertex -0.200000 -0.530196 1.000000
vertex -0.200000 -0.200000 1.115109
endloop
endfacet
facet normal 0.000000 0.000000 1.000000
outer loop
vertex 0.200000 -0.200000 1.115109
vertex 0.200000 0.200000 1.115109
vertex -0.200000 0.200000 1.115109
endloop
endfacet
facet normal 0.000000 0.000000 1.000000
outer loop
vertex 0.200000 -0.200000 1.115109
vertex -0.200000 0.200000 1.115109
vertex -0.200000 -0.200000 1.115109
endloop
endfacet
facet normal 0.454251 0.373816 0.808652
outer loop
vertex 0.530196 0.200000 1.000000
vertex 0.600000 0.200000 0.960788
vertex 0.600000 0.600000 0.775880
endloop
endfacet
facet normal 0.384726 0.399172 0.832254
outer loop
vertex 0.530196 0.200000 1.000000
vertex 0.600000 0.600000 0.775880
vertex 0.200000 0.600000 0.960788
endloop
endfacet
facet normal 0.439838 0.439839 0.782997
outer loop
vertex 0.200000 0.530196 1.000000
vertex 0.530196 0.200000 1.000000
vertex 0.200000 0.600000 0.960788
endloop
endfacet
facet normal 0.871859 -0.489757 0.000000
outer loop
vertex 1.000000 -0.530196 0.200000
vertex 0.960788 -0.600000 0.200000
vertex 0.960788 -0.600000 -0.200000
endloop
endfacet
facet normal 0.871859 -0.489757 0.000000
outer loop
vertex 1.000000 -0.530196 0.200000
vertex 0.960788 -0.600000 -0.200000
vertex 1.000000 -0.530196 -0.200000
endloop
endfacet
facet normal 0.871860 0.000000 -0.489756
outer loop
vertex 0.960788 -0.200000 -0.600000
vertex 0.960788 0.200000 -0.600000
vertex 1.000000 0.200000 -0.530196
endloop
endfacet
facet normal 0.871859 0.000000 -0.489757
outer loop
vertex 0.960788 -0.200000 -0.600000
vertex 1.000000 0.200000 -0.530196
vertex 1.000000 -0.200000 -0.530196
endloop
endfacet
facet normal 1.000000 0.000000 0.000000
outer loop
vertex 1.115109 0.200000 -0.200000
vertex 1.115109 0.200000 0.200000
vertex 1.115109 -0.200000 0.200000
endloop
endfacet
facet normal 1.000000 0.000000 0.000000
outer loop
vertex 1.115109 0.200000 -0.200000
vertex 1.115109 -0.200000 0.200000
vertex 1.115109 -0.200000 -0.200000
endloop
endfacet
facet normal 0.489757 0.871859 0.000000
outer loop
vertex 0.530196 1.000000 -0.200000
vertex 0.530196 1.000000 0.200000
vertex 0.600000 0.960788 0.200000
endloop
endfacet
facet normal 0.489756 0.871860 0.000000
outer loop
vertex 0.530196 1.000000 -0.200000
vertex 0.600000 0.960788 0.200000
vertex 0.600000 0.960788 -0.200000
endloop
endfacet
facet normal 0.837007 0.386923 0.386923
outer loop
vertex 0.960788 0.600000 0.200000
vertex 0.775880 0.600000 0.600000
vertex 0.960788 0.200000 0.600000
endloop
endfacet
facet normal 0.782996 0.439840 0.439839
outer loop
vertex 0.960788 0.600000 0.200000
vertex 0.960788 0.200000 0.600000
vertex 1.000000 0.200000 0.530196
endloop
endfacet
facet normal 0.782997 0.439838 0.439839
outer loop
vertex 1.000000 0.530196 0.200000
vertex 0.960788 0.600000 0.200000
vertex 1.000000 0.200000 0.530196
endloop
endfacet
facet normal 0.454251 0.808652 0.373815
outer loop
vertex 0.600000 0.775880 0.600000
vertex 0.600000 0.960788 0.200000
vertex 0.530196 1.000000 0.200000
endloop
endfacet
facet normal 0.395466 0.828984 0.395466
outer loop
vertex 0.600000 0.775880 0.600000
vertex 0.530196 1.000000 0.200000
vertex 0.200000 1.000000 0.530196
endloop
endfacet
facet normal 0.373816 0.808652 0.454251
outer loop
vertex 0.200000 0.960788 0.600000
vertex 0.600000 0.775880 0.600000
vertex 0.200000 1.000000 0.530196
endloop
endfacet
facet normal 0.672111 0.672111 -0.310697
outer loop
vertex 0.600000 0.960788 -0.200000
vertex 0.960788 0.600000 -0.200000
vertex 0.775880 0.600000 -0.600000
endloop
endfacet
facet normal 0.672111 0.672111 -0.310697
outer loop
vertex 0.600000 0.960788 -0.200000
vertex 0.775880 0.600000 -0.600000
vertex 0.600000 0.775880 -0.600000
endloop
endfacet
facet normal 0.672111 0.310697 0.672111
outer loop
vertex 0.960788 0.200000 0.600000
vertex 0.775880 0.600000 0.600000
vertex 0.600000 0.600000 0.775880
endloop
endfacet
facet normal 0.672111 0.310697 0.672111
outer loop
vertex 0.960788 0.200000 0.600000
vertex 0.600000 0.600000 0.775880
vertex 0.600000 0.200000 0.960788
endloop
endfacet
facet normal 0.896921 0.312676 0.312675
outer loop
vertex 1.115109 0.200000 0.200000
vertex 1.000000 0.530196 0.200000
vertex 1.000000 0.200000 0.530196
endloop
endfacet
facet normal 0.808652 0.454251 -0.373816
outer loop
vertex 0.775880 0.600000 -0.600000
vertex 0.960788 0.600000 -0.200000
vertex 1.000000 0.530196 -0.200000
endloop
endfacet
facet normal 0.828984 0.395466 -0.395466
outer loop
vertex 0.775880 0.600000 -0.600000
vertex 1.000000 0.530196 -0.200000
vertex 1.000000 0.200000 -0.530196
endloop
endfacet
facet normal 0.808652 0.373815 -0.454251
outer loop
vertex 0.960788 0.200000 -0.600000
vertex 0.775880 0.600000 -0.600000
vertex 1.000000 0.200000 -0.530196
endloop
endfacet
facet normal 0.672112 -0.310697 0.672111
outer loop
vertex 0.775880 -0.600000 0.600000
vertex 0.960788 -0.200000 0.600000
vertex 0.600000 -0.200000 0.960788
endloop
endfacet
facet normal 0.672111 -0.310697 0.672112
outer loop
vertex 0.775880 -0.600000 0.600000
vertex 0.600000 -0.200000 0.960788
vertex 0.600000 -0.600000 0.775880
endloop
endfacet
facet normal 0.808652 -0.454251 0.373816
outer loop
vertex 0.775880 -0.600000 0.600000
vertex 0.960788 -0.600000 0.200000
vertex 1.000000 -0.530196 0.200000
endloop
endfacet
facet normal 0.828984 -0.395466 0.395466
outer loop
vertex 0.775880 -0.600000 0.600000
vertex 1.000000 -0.530196 0.200000
vertex 1.000000 -0.200000 0.530196
endloop
endfacet
facet normal 0.808652 -0.373815 0.454251
outer loop
vertex 0.960788 -0.200000 0.600000
vertex 0.775880 -0.600000 0.600000
vertex 1.000000 -0.200000 0.530196
endloop
endfacet
facet normal 0.837007 -0.386923 -0.386923
outer loop
vertex 0.960788 -0.600000 -0.200000
vertex 0.775880 -0.600000 -0.600000
vertex 0.960788 -0.200000 -0.600000
endloop
endfacet
facet normal 0.782996 -0.439840 -0.439839
outer loop
vertex 0.960788 -0.600000 -0.200000
vertex 0.960788 -0.200000 -0.600000
vertex 1.000000 -0.200000 -0.530196
endloop
endfacet
facet normal 0.782997 -0.439838 -0.439839
outer loop
vertex 1.000000 -0.530196 -0.200000
vertex 0.960788 -0.600000 -0.200000
vertex 1.000000 -0.200000 -0.530196
endloop
endfacet
facet normal 0.310697 0.672112 0.672111
outer loop
vertex 0.600000 0.600000 0.775880
vertex 0.600000 0.775880 0.600000
vertex 0.200000 0.960788 0.600000
endloop
endfacet
facet normal 0.310697 0.672111 0.672112
outer loop
vertex 0.600000 0.600000 0.775880
vertex 0.200000 0.960788 0.600000
vertex 0.200000 0.600000 0.960788
endloop
endfacet
facet normal 0.312675 0.896921 0.312676
outer loop
vertex 0.530196 1.000000 0.200000
vertex 0.200000 1.115109 0.200000
vertex 0.200000 1.000000 0.530196
endloop
endfacet
facet normal 0.386923 0.837007 -0.386923
outer loop
vertex 0.600000 0.960788 -0.200000
vertex 0.600000 0.775880 -0.600000
vertex 0.200000 0.960788 -0.600000
endloop
endfacet
facet normal 0.439839 0.782996 -0.439839
outer loop
vertex 0.600000 0.960788 -0.200000
vertex 0.200000 0.960788 -0.600000
vertex 0.200000 1.000000 -0.530196
endloop
endfacet
facet normal 0.439839 0.782997 -0.439838
outer loop
vertex 0.530196 1.000000 -0.200000
vertex 0.600000 0.960788 -0.200000
vertex 0.200000 1.000000 -0.530196
endloop
endfacet
facet normal 0.312676 0.312675 0.896921
outer loop
vertex 0.530196 0.200000 1.000000
vertex 0.200000 0.530196 1.000000
vertex 0.200000 0.200000 1.115109
endloop
endfacet
facet normal 0.312676 0.312675 -0.896921
outer loop
vertex 0.200000 0.530196 -1.000000
vertex 0.530196 0.200000 -1.000000
vertex 0.200000 0.200000 -1.115109
endloop
endfacet
facet normal 0.439838 -0.439839 0.782997
outer loop
vertex 0.600000 -0.200000 0.960788
vertex 0.530196 -0.200000 1.000000
vertex 0.200000 -0.530196 1.000000
endloop
endfacet
facet normal 0.439840 -0.439839 0.782996
outer loop
vertex 0.600000 -0.200000 0.960788
vertex 0.200000 -0.530196 1.000000
vertex 0.200000 -0.600000 0.960788
endloop
endfacet
facet normal 0.386923 -0.386923 0.837007
outer loop
vertex 0.600000 -0.600000 0.775880
vertex 0.600000 -0.200000 0.960788
vertex 0.200000 -0.600000 0.960788
endloop
endfacet
facet normal 0.312675 -0.896921 0.312676
outer loop
vertex 0.200000 -1.115109 0.200000
vertex 0.530196 -1.000000 0.200000
vertex 0.200000 -1.000000 0.530196
endloop
endfacet
facet normal 0.310697 -0.672112 -0.672111
outer loop
vertex 0.600000 -0.600000 -0.775880
vertex 0.600000 -0.775880 -0.600000
vertex 0.200000 -0.960788 -0.600000
endloop
endfacet
facet normal 0.310697 -0.672111 -0.672112
outer loop
vertex 0.600000 -0.600000 -0.775880
vertex 0.200000 -0.960788 -0.600000
vertex 0.200000 -0.600000 -0.960788
endloop
endfacet
facet normal -0.310697 0.672111 0.672111
outer loop
vertex -0.200000 0.600000 0.960788
vertex -0.200000 0.960788 0.600000
vertex -0.600000 0.775880 0.600000
endloop
endfacet
facet normal -0.310697 0.672111 0.672111
outer loop
vertex -0.200000 0.600000 0.960788
vertex -0.600000 0.775880 0.600000
vertex -0.600000 0.600000 0.775880
endloop
endfacet
facet normal -0.439839 0.782997 0.439838
outer loop
vertex -0.200000 0.960788 0.600000
vertex -0.200000 1.000000 0.530196
vertex -0.530196 1.000000 0.200000
endloop
endfacet
facet normal -0.439839 0.782996 0.439840
outer loop
vertex -0.200000 0.960788 0.600000
vertex -0.530196 1.000000 0.200000
vertex -0.600000 0.960788 0.200000
endloop
endfacet
facet normal -0.386923 0.837007 0.386923
outer loop
vertex -0.600000 0.775880 0.600000
vertex -0.200000 0.960788 0.600000
vertex -0.600000 0.960788 0.200000
endloop
endfacet
facet normal -0.439839 0.782997 -0.439838
outer loop
vertex -0.530196 1.000000 -0.200000
vertex -0.200000 1.000000 -0.530196
vertex -0.200000 0.960788 -0.600000
endloop
endfacet
facet normal -0.384726 0.832254 -0.399173
outer loop
vertex -0.530196 1.000000 -0.200000
vertex -0.200000 0.960788 -0.600000
vertex -0.600000 0.775880 -0.600000
endloop
endfacet
facet normal -0.454251 0.808652 -0.373815
outer loop
vertex -0.600000 0.960788 -0.200000
vertex -0.530196 1.000000 -0.200000
vertex -0.600000 0.775880 -0.600000
endloop
endfacet
facet normal -0.373815 0.454251 0.808652
outer loop
vertex -0.200000 0.530196 1.000000
vertex -0.200000 0.600000 0.960788
vertex -0.600000 0.600000 0.775880
endloop
endfacet
facet normal -0.399173 0.384726 0.832254
outer loop
vertex -0.200000 0.530196 1.000000
vertex -0.600000 0.600000 0.775880
vertex -0.600000 0.200000 0.960788
endloop
endfacet
facet normal -0.439838 0.439839 0.782997
outer loop
vertex -0.530196 0.200000 1.000000
vertex -0.200000 0.530196 1.000000
vertex -0.600000 0.200000 0.960788
endloop
endfacet
facet normal -0.896921 0.312676 0.312675
outer loop
vertex -1.000000 0.530196 0.200000
vertex -1.115109 0.200000 0.200000
vertex -1.000000 0.200000 0.530196
endloop
endfacet
facet normal -0.672111 0.310697 -0.672111
outer loop
vertex -0.960788 0.200000 -0.600000
vertex -0.775880 0.600000 -0.600000
vertex -0.600000 0.600000 -0.775880
endloop
endfacet
facet normal -0.672111 0.310697 -0.672111
outer loop
vertex -0.960788 0.200000 -0.600000
vertex -0.600000 0.600000 -0.775880
vertex -0.600000 0.200000 -0.960788
endloop
endfacet
facet normal -0.439838 -0.439839 0.782997
outer loop
vertex -0.200000 -0.530196 1.000000
vertex -0.530196 -0.200000 1.000000
vertex -0.600000 -0.200000 0.960788
endloop
endfacet
facet normal -0.399173 -0.384726 0.832254
outer loop
vertex -0.200000 -0.530196 1.000000
vertex -0.600000 -0.200000 0.960788
vertex -0.600000 -0.600000 0.775880
endloop
endfacet
facet normal -0.373815 -0.454251 0.808652
outer loop
vertex -0.200000 -0.600000 0.960788
vertex -0.200000 -0.530196 1.000000
vertex -0.600000 -0.600000 0.775880
endloop
endfacet
facet normal -0.672112 -0.672111 0.310697
outer loop
vertex -0.600000 -0.775880 0.600000
vertex -0.775880 -0.600000 0.600000
vertex -0.960788 -0.600000 0.200000
endloop
endfacet
facet normal -0.672111 -0.672112 0.310697
outer loop
vertex -0.600000 -0.775880 0.600000
vertex -0.960788 -0.600000 0.200000
vertex -0.600000 -0.960788 0.200000
endloop
endfacet
facet normal -0.577350 -0.577350 -0.577350
outer loop
vertex -0.600000 -0.775880 -0.600000
vertex -0.775880 -0.600000 -0.600000
vertex -0.600000 -0.600000 -0.775880
endloop
endfacet
endsolid Exported from Blender-2.90.0
